#!OML:ASF F:\VICON\USERDATA\INSTALL\rory3\rory3.ASF
:FULLY-SPECIFIED
:DEGREES
138
root -1.41838 18.4465 3.39159 14.9688 64.3854 10.1983
lowerback 15.9436 -0.809349 3.11263
upperback 6.98369 -0.274745 1.79877
thorax -1.53054 0.0156095 0.170366
lowerneck -3.99243 2.86513 -5.34608
upperneck 29.8799 3.86879 6.62456
head 9.82942 2.18937 3.67579
rclavicle 2.06736e-014 1.27222e-014
rhumerus -24.666 9.58511 -75.2594
rradius 43.4151
rwrist 6.46104
rhand -37.0054 0.871811
rfingers 7.12502
rthumb -10.0799 -28.8668
lclavicle 2.06736e-014 1.27222e-014
lhumerus -31.6853 12.0222 73.0453
lradius 26.6424
lwrist -12.9126
lhand -18.1975 25.9983
lfingers 7.12502
lthumb 8.07976 55.8239
rfemur -23.9212 10.8246 16.1032
rtibia 40.0541
rfoot -22.0347 -21.1111
rtoes 0.375652
lfemur -40.0021 18.3448 -25.7527
ltibia 68.0823
lfoot 8.25149 -10.3368
ltoes -1.46815
139
root -1.38941 18.4536 3.38245 15.2533 64.2332 10.3291
lowerback 16.0628 -0.916108 3.15818
upperback 7.06047 -0.399059 1.80912
thorax -1.51434 -0.0425162 0.177394
lowerneck -3.99076 2.94585 -5.48404
upperneck 29.8655 4.01732 6.5395
head 9.81325 2.23105 3.68015
rclavicle -3.97569e-014 6.67916e-014
rhumerus -24.344 9.89323 -75.113
rradius 43.9966
rwrist 5.80707
rhand -36.2853 1.09077
rfingers 7.12502
rthumb -9.38514 -28.6803
lclavicle -3.97569e-014 6.67916e-014
lhumerus -31.7301 12.0269 73.1961
lradius 26.5005
lwrist -12.6638
lhand -18.0785 26.1655
lfingers 7.12502
lthumb 8.19457 55.9866
rfemur -24.05 10.845 15.9307
rtibia 40.045
rfoot -21.9072 -21.1626
rtoes 0.0920568
lfemur -41.0864 18.6326 -26.092
ltibia 68.2589
lfoot 7.05605 -9.37864
ltoes -0.0921436
140
root -1.35893 18.4605 3.37695 15.4015 64.124 10.3298
lowerback 16.1491 -0.988221 3.2488
upperback 7.15759 -0.472041 1.8383
thorax -1.4584 -0.0735387 0.169916
lowerneck -3.95106 2.98154 -5.59093
upperneck 29.8008 4.08732 6.48949
head 9.77626 2.24428 3.68185
rclavicle -3.26007e-014 9.54166e-015
rhumerus -24.1244 10.4647 -75.0059
rradius 44.4929
rwrist 5.51529
rhand -34.5971 1.71236
rfingers 7.12502
rthumb -7.75594 -28.1254
lclavicle -3.26007e-014 9.54166e-015
lhumerus -31.6516 12.4063 73.2283
lradius 26.1822
lwrist -12.842
lhand -18.0585 25.8757
lfingers 7.12502
lthumb 8.21392 55.696
rfemur -24.1304 10.9638 15.814
rtibia 40.01
rfoot -21.9255 -21.1975
rtoes 0.0733345
lfemur -42.1249 19.1004 -26.3539
ltibia 68.3122
lfoot 5.98627 -8.66378
ltoes 0.476168
141
root -1.33073 18.4663 3.37379 15.4775 64.0278 10.3499
lowerback 16.3539 -1.00254 3.36609
upperback 7.27147 -0.460767 1.79828
thorax -1.44579 -0.0607614 0.0614615
lowerneck -3.90624 2.94645 -5.5611
upperneck 29.7024 4.01561 6.5317
head 9.73564 2.21742 3.67973
rclavicle -7.95139e-016 4.77083e-015
rhumerus -23.9621 10.6643 -74.955
rradius 44.9585
rwrist 5.31671
rhand -32.2461 3.14177
rfingers 7.12502
rthumb -5.48635 -26.7672
lclavicle -7.95139e-016 4.77083e-015
lhumerus -31.4207 12.6568 73.1935
lradius 25.7836
lwrist -13.2247
lhand -18.0606 25.557
lfingers 7.12502
lthumb 8.21189 55.3774
rfemur -24.1044 10.9801 15.7406
rtibia 39.9515
rfoot -21.8536 -21.2252
rtoes -0.071023
lfemur -43.0574 19.6379 -26.6138
ltibia 68.229
lfoot 4.8941 -8.09558
ltoes 0.192138
142
root -1.30175 18.4747 3.36624 15.7099 63.8372 10.5085
lowerback 16.5752 -0.983752 3.36685
upperback 7.36217 -0.42386 1.74299
thorax -1.46519 -0.038607 -0.0017622
lowerneck -3.89308 2.92122 -5.44913
upperneck 29.6465 3.96553 6.50948
head 9.71935 2.20237 3.64535
rclavicle -6.36111e-015 -1.11319e-014
rhumerus -23.7734 10.6281 -74.8409
rradius 45.4235
rwrist 5.20979
rhand -34.8613 2.12247
rfingers 7.12502
rthumb -8.01091 -27.7057
lclavicle -6.36111e-015 -1.11319e-014
lhumerus -31.265 12.6984 73.2195
lradius 25.5213
lwrist -13.4625
lhand -18.0186 25.2251
lfingers 7.12502
lthumb 8.25238 55.0439
rfemur -24.1299 10.9175 15.5669
rtibia 39.8791
rfoot -21.8458 -21.1448
rtoes -0.183521
lfemur -43.9683 20.0201 -26.9214
ltibia 67.9985
lfoot 4.08887 -7.35503
ltoes 1.45677
143
root -1.27122 18.4844 3.35143 16.2418 63.6234 10.8295
lowerback 16.5965 -0.979055 3.29753
upperback 7.4385 -0.427497 1.71038
thorax -1.39548 -0.0386981 0.00370402
lowerneck -3.85447 2.9063 -5.39814
upperneck 29.562 3.94677 6.44303
head 9.6858 2.19012 3.60633
rclavicle -1.59028e-015 -1.43125e-014
rhumerus -23.5241 10.6993 -74.6121
rradius 45.9275
rwrist 4.9578
rhand -32.8123 3.35472
rfingers 7.12502
rthumb -6.03304 -26.5394
lclavicle -1.59028e-015 -1.43125e-014
lhumerus -31.1283 12.75 73.3585
lradius 25.3524
lwrist -13.5059
lhand -17.8332 25.0898
lfingers 7.12502
lthumb 8.43127 54.9015
rfemur -24.3485 10.913 15.2259
rtibia 39.82
rfoot -21.9912 -21.0124
rtoes 0.0317791
lfemur -45.0042 20.3286 -27.3729
ltibia 67.6039
lfoot 3.57595 -6.71375
ltoes 2.57747
144
root -1.24243 18.497 3.33728 16.9266 63.4515 11.3046
lowerback 16.6189 -1.01175 3.21206
upperback 7.50158 -0.484237 1.62339
thorax -1.34199 -0.0652607 -0.0295411
lowerneck -3.85639 2.9092 -5.40971
upperneck 29.5445 3.93573 6.49069
head 9.67846 2.18676 3.62311
rclavicle 4.13472e-014 0
rhumerus -23.2935 10.9027 -74.5086
rradius 46.4052
rwrist 4.64107
rhand -34.8526 2.05945
rfingers 7.12502
rthumb -8.00252 -27.7691
lclavicle 4.13472e-014 0
lhumerus -30.923 12.7499 73.4538
lradius 25.1577
lwrist -13.3932
lhand -17.5041 25.0292
lfingers 7.12502
lthumb 8.74895 54.8279
rfemur -24.5687 11.0613 14.8005
rtibia 39.7739
rfoot -22.0377 -21.0808
rtoes 0.226988
lfemur -45.976 20.6595 -27.8892
ltibia 67.0082
lfoot 3.17537 -6.33173
ltoes 2.60646
145
root -1.2134 18.5181 3.32608 18.3953 63.1754 12.6366
lowerback 16.696 -0.919476 2.90039
upperback 7.4825 -0.422093 1.25362
thorax -1.40293 -0.0376468 -0.252348
lowerneck -3.69617 2.82655 -4.98672
upperneck 29.4767 3.73781 6.5687
head 9.6433 2.14819 3.55414
rclavicle 2.06736e-014 2.06736e-014
rhumerus -23.3905 10.6383 -74.6898
rradius 46.8384
rwrist 4.51614
rhand -32.9182 2.83774
rfingers 7.12502
rthumb -6.13529 -27.0534
lclavicle 2.06736e-014 2.06736e-014
lhumerus -30.6021 12.1885 73.4061
lradius 24.8741
lwrist -13.1949
lhand -17.5217 24.8958
lfingers 7.12502
lthumb 8.73195 54.6952
rfemur -24.769 11.135 13.9346
rtibia 39.6968
rfoot -21.9983 -21.1553
rtoes 0.125149
lfemur -46.7788 20.8098 -28.7703
ltibia 66.1998
lfoot 2.83312 -5.79881
ltoes 3.16657
146
root -1.18283 18.5396 3.30996 20.2715 62.8408 14.3566
lowerback 16.7184 -0.62692 2.67094
upperback 7.37182 -0.103025 0.59676
thorax -1.52522 0.119665 -0.868486
lowerneck -3.28167 2.51176 -3.76393
upperneck 29.3168 3.13661 6.57337
head 9.57081 2.00319 3.27928
rclavicle -2.06736e-014 -1.74931e-014
rhumerus -23.9346 9.29433 -75.0556
rradius 47.2881
rwrist 4.66534
rhand -35.2084 1.49408
rfingers 7.12502
rthumb -8.34593 -28.321
lclavicle -2.06736e-014 -1.74931e-014
lhumerus -30.1162 10.4345 73.3397
lradius 24.5946
lwrist -12.7327
lhand -17.7458 25.0066
lfingers 7.12502
lthumb 8.51562 54.8149
rfemur -25.0072 10.9317 12.8296
rtibia 39.5366
rfoot -21.9856 -20.9571
rtoes 0.147868
lfemur -47.5864 20.805 -29.874
ltibia 65.2506
lfoot 2.53758 -5.20072
ltoes 3.24363
147
root -1.15271 18.5538 3.28794 20.5785 62.6908 14.5296
lowerback 16.895 -0.629571 2.69183
upperback 7.44277 -0.0952161 0.542328
thorax -1.54192 0.127385 -0.938719
lowerneck -3.33471 2.48438 -3.56653
upperneck 29.3251 3.0876 6.50708
head 9.5927 1.99332 3.21935
rclavicle 2.70347e-014 -7.95139e-015
rhumerus -23.7831 9.07724 -74.898
rradius 47.7099
rwrist 4.5886
rhand -32.5335 2.4031
rfingers 7.12502
rthumb -5.76382 -27.4985
lclavicle 2.70347e-014 -7.95139e-015
lhumerus -29.8663 10.3502 73.4552
lradius 24.4011
lwrist -12.868
lhand -17.5871 24.8365
lfingers 7.12502
lthumb 8.66879 54.6385
rfemur -25.0053 10.8382 12.5653
rtibia 39.2772
rfoot -21.9324 -20.8027
rtoes 0.221715
lfemur -48.2827 20.934 -30.0858
ltibia 64.332
lfoot 2.39501 -4.92333
ltoes 2.81221
148
root -1.12181 18.5678 3.26 19.6956 62.6055 13.556
lowerback 17.2751 -0.828297 2.96597
upperback 7.53273 -0.277735 0.887773
thorax -1.64977 0.0408736 -0.696782
lowerneck -3.35275 2.68044 -4.16753
upperneck 29.3195 3.43318 6.48928
head 9.56081 2.08295 3.34391
rclavicle 6.75868e-014 -1.59028e-014
rhumerus -23.3699 9.82674 -74.4841
rradius 48.0788
rwrist 4.30506
rhand -34.9631 1.62845
rfingers 7.12502
rthumb -8.10912 -28.196
lclavicle 6.75868e-014 -1.59028e-014
lhumerus -29.9762 11.4065 73.6752
lradius 24.2659
lwrist -13.3986
lhand -17.4652 24.5136
lfingers 7.12502
lthumb 8.78641 54.3107
rfemur -24.7831 11.0182 12.9009
rtibia 38.9187
rfoot -21.8201 -20.816
rtoes 0.225893
lfemur -48.8412 21.2266 -29.6151
ltibia 63.4906
lfoot 2.36304 -4.81668
ltoes 1.41913
